<mxfile host="www.draw.io" modified="2020-01-08T13:16:21.876Z" agent="Mozilla/5.0 (X11; Linux x86_64) AppleWebKit/537.36 (KHTML, like Gecko) Chrome/77.0.3865.75 Safari/537.36" etag="-GcW0Q-wMbppSHmUUw-j" version="12.4.9" type="github">
  <diagram id="Cn6sJ7wEzwwimY5fbYxw" name="Page-1">
    <mxGraphModel dx="2423" dy="2025" grid="1" gridSize="10" guides="1" tooltips="1" connect="1" arrows="1" fold="1" page="1" pageScale="1" pageWidth="827" pageHeight="1169" math="0" shadow="0">
      <root>
        <mxCell id="0"/>
        <mxCell id="1" parent="0"/>
        <mxCell id="hnc1bcMlpeBeaUBVkLQN-2" value="" style="rounded=0;whiteSpace=wrap;html=1;fillColor=#f5f5f5;strokeColor=#666666;fontColor=#333333;" vertex="1" parent="1">
          <mxGeometry x="-470" y="-167" width="1290" height="760" as="geometry"/>
        </mxCell>
        <mxCell id="hnc1bcMlpeBeaUBVkLQN-3" value="" style="rounded=0;whiteSpace=wrap;html=1;fillColor=#dae8fc;strokeColor=#6c8ebf;" vertex="1" parent="1">
          <mxGeometry x="50" y="-117" width="220" height="650" as="geometry"/>
        </mxCell>
        <mxCell id="hnc1bcMlpeBeaUBVkLQN-4" value="" style="rounded=0;whiteSpace=wrap;html=1;fillColor=#fff2cc;strokeColor=#d6b656;" vertex="1" parent="1">
          <mxGeometry x="-410" y="-117" width="440" height="650" as="geometry"/>
        </mxCell>
        <mxCell id="hnc1bcMlpeBeaUBVkLQN-5" value="" style="rounded=0;whiteSpace=wrap;html=1;fillColor=#ffe6cc;strokeColor=#d79b00;" vertex="1" parent="1">
          <mxGeometry x="300" y="-17" width="460" height="410" as="geometry"/>
        </mxCell>
        <mxCell id="hnc1bcMlpeBeaUBVkLQN-6" value="&lt;font style=&quot;font-size: 18px&quot;&gt;多帧图像&lt;br&gt;（存为txt）&lt;/font&gt;" style="rounded=0;whiteSpace=wrap;html=1;" vertex="1" parent="1">
          <mxGeometry x="-127" y="123" width="127" height="60" as="geometry"/>
        </mxCell>
        <mxCell id="hnc1bcMlpeBeaUBVkLQN-7" style="edgeStyle=orthogonalEdgeStyle;rounded=0;orthogonalLoop=1;jettySize=auto;html=1;entryX=0;entryY=0.5;entryDx=0;entryDy=0;" edge="1" parent="1" source="hnc1bcMlpeBeaUBVkLQN-8" target="hnc1bcMlpeBeaUBVkLQN-10">
          <mxGeometry relative="1" as="geometry"/>
        </mxCell>
        <mxCell id="hnc1bcMlpeBeaUBVkLQN-8" value="&lt;font style=&quot;font-size: 18px&quot;&gt;多帧图像&lt;br&gt;（加载txt）&lt;/font&gt;" style="rounded=0;whiteSpace=wrap;html=1;" vertex="1" parent="1">
          <mxGeometry x="90" y="123" width="130" height="60" as="geometry"/>
        </mxCell>
        <mxCell id="hnc1bcMlpeBeaUBVkLQN-9" value="" style="edgeStyle=orthogonalEdgeStyle;rounded=0;orthogonalLoop=1;jettySize=auto;html=1;" edge="1" parent="1" source="hnc1bcMlpeBeaUBVkLQN-10" target="hnc1bcMlpeBeaUBVkLQN-12">
          <mxGeometry relative="1" as="geometry"/>
        </mxCell>
        <mxCell id="hnc1bcMlpeBeaUBVkLQN-10" value="&lt;font style=&quot;font-size: 18px&quot;&gt;Jar包&lt;br&gt;（数据预处理）&lt;/font&gt;" style="rounded=0;whiteSpace=wrap;html=1;fontSize=15;" vertex="1" parent="1">
          <mxGeometry x="340" y="123" width="130" height="60" as="geometry"/>
        </mxCell>
        <mxCell id="hnc1bcMlpeBeaUBVkLQN-11" value="" style="edgeStyle=orthogonalEdgeStyle;rounded=0;orthogonalLoop=1;jettySize=auto;html=1;" edge="1" parent="1" source="hnc1bcMlpeBeaUBVkLQN-12" target="hnc1bcMlpeBeaUBVkLQN-14">
          <mxGeometry relative="1" as="geometry"/>
        </mxCell>
        <mxCell id="hnc1bcMlpeBeaUBVkLQN-12" value="&lt;font style=&quot;font-size: 18px&quot;&gt;TensorFlow&lt;br&gt;Serving&lt;/font&gt;" style="rounded=0;whiteSpace=wrap;html=1;" vertex="1" parent="1">
          <mxGeometry x="550" y="123" width="120" height="60" as="geometry"/>
        </mxCell>
        <mxCell id="hnc1bcMlpeBeaUBVkLQN-13" style="edgeStyle=orthogonalEdgeStyle;rounded=0;orthogonalLoop=1;jettySize=auto;html=1;exitX=0;exitY=0.5;exitDx=0;exitDy=0;" edge="1" parent="1" source="hnc1bcMlpeBeaUBVkLQN-14" target="hnc1bcMlpeBeaUBVkLQN-31">
          <mxGeometry relative="1" as="geometry"/>
        </mxCell>
        <mxCell id="hnc1bcMlpeBeaUBVkLQN-14" value="&lt;font style=&quot;font-size: 18px&quot;&gt;模型输出&lt;br&gt;（预测图像）&lt;/font&gt;" style="rounded=0;whiteSpace=wrap;html=1;" vertex="1" parent="1">
          <mxGeometry x="550" y="263" width="120" height="60" as="geometry"/>
        </mxCell>
        <mxCell id="hnc1bcMlpeBeaUBVkLQN-15" value="" style="edgeStyle=orthogonalEdgeStyle;rounded=0;orthogonalLoop=1;jettySize=auto;html=1;" edge="1" parent="1" source="hnc1bcMlpeBeaUBVkLQN-16" target="hnc1bcMlpeBeaUBVkLQN-12">
          <mxGeometry relative="1" as="geometry"/>
        </mxCell>
        <mxCell id="hnc1bcMlpeBeaUBVkLQN-16" value="&lt;font style=&quot;font-size: 18px&quot;&gt;Model&lt;br&gt;（在线模型）&lt;/font&gt;" style="rounded=0;whiteSpace=wrap;html=1;" vertex="1" parent="1">
          <mxGeometry x="550" y="3" width="120" height="60" as="geometry"/>
        </mxCell>
        <mxCell id="hnc1bcMlpeBeaUBVkLQN-17" value="" style="edgeStyle=orthogonalEdgeStyle;rounded=0;orthogonalLoop=1;jettySize=auto;html=1;" edge="1" parent="1" source="hnc1bcMlpeBeaUBVkLQN-18" target="hnc1bcMlpeBeaUBVkLQN-20">
          <mxGeometry relative="1" as="geometry"/>
        </mxCell>
        <mxCell id="hnc1bcMlpeBeaUBVkLQN-18" value="&lt;font style=&quot;font-size: 18px&quot;&gt;URL&lt;br&gt;（视频地址）&lt;/font&gt;" style="rounded=0;whiteSpace=wrap;html=1;" vertex="1" parent="1">
          <mxGeometry x="-357" y="-17" width="120" height="60" as="geometry"/>
        </mxCell>
        <mxCell id="hnc1bcMlpeBeaUBVkLQN-19" style="edgeStyle=orthogonalEdgeStyle;rounded=0;orthogonalLoop=1;jettySize=auto;html=1;" edge="1" parent="1" source="hnc1bcMlpeBeaUBVkLQN-20" target="hnc1bcMlpeBeaUBVkLQN-6">
          <mxGeometry relative="1" as="geometry"/>
        </mxCell>
        <mxCell id="hnc1bcMlpeBeaUBVkLQN-20" value="&lt;font style=&quot;font-size: 18px&quot;&gt;视频&lt;br&gt;（Downloaded）&lt;/font&gt;" style="rounded=0;whiteSpace=wrap;html=1;" vertex="1" parent="1">
          <mxGeometry x="-357" y="123" width="120" height="60" as="geometry"/>
        </mxCell>
        <mxCell id="hnc1bcMlpeBeaUBVkLQN-21" value="&lt;font style=&quot;font-size: 14px&quot;&gt;发送指定帧&lt;/font&gt;" style="text;html=1;strokeColor=none;fillColor=none;align=center;verticalAlign=middle;whiteSpace=wrap;rounded=0;" vertex="1" parent="1">
          <mxGeometry x="-227" y="133" width="90" height="20" as="geometry"/>
        </mxCell>
        <mxCell id="hnc1bcMlpeBeaUBVkLQN-22" style="edgeStyle=orthogonalEdgeStyle;rounded=0;orthogonalLoop=1;jettySize=auto;html=1;entryX=0.5;entryY=0;entryDx=0;entryDy=0;" edge="1" parent="1" source="hnc1bcMlpeBeaUBVkLQN-23" target="hnc1bcMlpeBeaUBVkLQN-8">
          <mxGeometry relative="1" as="geometry"/>
        </mxCell>
        <mxCell id="hnc1bcMlpeBeaUBVkLQN-23" value="&lt;font style=&quot;font-size: 18px&quot;&gt;SpringBoot&lt;br&gt;（启动wpaiClient）&lt;br&gt;&lt;/font&gt;" style="rounded=0;whiteSpace=wrap;html=1;" vertex="1" parent="1">
          <mxGeometry x="70" y="-17" width="170" height="60" as="geometry"/>
        </mxCell>
        <mxCell id="hnc1bcMlpeBeaUBVkLQN-24" style="edgeStyle=orthogonalEdgeStyle;rounded=0;orthogonalLoop=1;jettySize=auto;html=1;entryX=0.5;entryY=1;entryDx=0;entryDy=0;" edge="1" parent="1" source="hnc1bcMlpeBeaUBVkLQN-25" target="hnc1bcMlpeBeaUBVkLQN-20">
          <mxGeometry relative="1" as="geometry"/>
        </mxCell>
        <mxCell id="hnc1bcMlpeBeaUBVkLQN-25" value="&lt;font style=&quot;font-size: 18px&quot;&gt;Response&lt;br&gt;（计算响应值）&lt;/font&gt;" style="rounded=0;whiteSpace=wrap;html=1;" vertex="1" parent="1">
          <mxGeometry x="-367" y="393" width="140" height="60" as="geometry"/>
        </mxCell>
        <mxCell id="hnc1bcMlpeBeaUBVkLQN-26" value="&lt;font style=&quot;font-size: 14px&quot;&gt;跳帧&lt;br&gt;（指定跳帧数）&lt;/font&gt;" style="text;html=1;strokeColor=none;fillColor=none;align=center;verticalAlign=middle;whiteSpace=wrap;rounded=0;" vertex="1" parent="1">
          <mxGeometry x="-310" y="273" width="120" height="20" as="geometry"/>
        </mxCell>
        <mxCell id="hnc1bcMlpeBeaUBVkLQN-27" value="&lt;h1&gt;Python端&lt;/h1&gt;" style="text;html=1;strokeColor=none;fillColor=none;spacing=5;spacingTop=-20;whiteSpace=wrap;overflow=hidden;rounded=0;" vertex="1" parent="1">
          <mxGeometry x="-400" y="-107" width="120" height="40" as="geometry"/>
        </mxCell>
        <mxCell id="hnc1bcMlpeBeaUBVkLQN-28" value="&lt;h1&gt;Java端&lt;/h1&gt;" style="text;html=1;strokeColor=none;fillColor=none;spacing=5;spacingTop=-20;whiteSpace=wrap;overflow=hidden;rounded=0;" vertex="1" parent="1">
          <mxGeometry x="60" y="-107" width="120" height="40" as="geometry"/>
        </mxCell>
        <mxCell id="hnc1bcMlpeBeaUBVkLQN-29" value="&lt;h1&gt;WPAI在线预测&lt;/h1&gt;" style="text;html=1;strokeColor=none;fillColor=none;spacing=5;spacingTop=-20;whiteSpace=wrap;overflow=hidden;rounded=0;" vertex="1" parent="1">
          <mxGeometry x="310" y="-7" width="170" height="40" as="geometry"/>
        </mxCell>
        <mxCell id="hnc1bcMlpeBeaUBVkLQN-30" style="edgeStyle=orthogonalEdgeStyle;rounded=0;orthogonalLoop=1;jettySize=auto;html=1;exitX=0.5;exitY=1;exitDx=0;exitDy=0;" edge="1" parent="1" source="hnc1bcMlpeBeaUBVkLQN-31" target="hnc1bcMlpeBeaUBVkLQN-32">
          <mxGeometry relative="1" as="geometry"/>
        </mxCell>
        <mxCell id="hnc1bcMlpeBeaUBVkLQN-31" value="&lt;span style=&quot;font-size: 18px&quot;&gt;模型结果&lt;br&gt;（Float矩阵）&lt;br&gt;&lt;/span&gt;" style="rounded=0;whiteSpace=wrap;html=1;" vertex="1" parent="1">
          <mxGeometry x="100" y="263" width="120" height="60" as="geometry"/>
        </mxCell>
        <mxCell id="hnc1bcMlpeBeaUBVkLQN-32" value="&lt;span style=&quot;font-size: 18px ; white-space: normal&quot;&gt;生成Txt文件&lt;/span&gt;" style="rounded=0;whiteSpace=wrap;html=1;" vertex="1" parent="1">
          <mxGeometry x="100" y="393" width="120" height="60" as="geometry"/>
        </mxCell>
        <mxCell id="hnc1bcMlpeBeaUBVkLQN-33" style="edgeStyle=orthogonalEdgeStyle;rounded=0;orthogonalLoop=1;jettySize=auto;html=1;" edge="1" parent="1" source="hnc1bcMlpeBeaUBVkLQN-34" target="hnc1bcMlpeBeaUBVkLQN-25">
          <mxGeometry relative="1" as="geometry"/>
        </mxCell>
        <mxCell id="hnc1bcMlpeBeaUBVkLQN-34" value="&lt;span style=&quot;font-size: 18px ; white-space: normal&quot;&gt;读取Txt文件&lt;/span&gt;" style="rounded=0;whiteSpace=wrap;html=1;" vertex="1" parent="1">
          <mxGeometry x="-134" y="393" width="120" height="60" as="geometry"/>
        </mxCell>
        <mxCell id="hnc1bcMlpeBeaUBVkLQN-35" value="" style="shape=flexArrow;endArrow=classic;html=1;fillColor=#f8cecc;strokeColor=#b85450;" edge="1" parent="1">
          <mxGeometry width="50" height="50" relative="1" as="geometry">
            <mxPoint x="5" y="153" as="sourcePoint"/>
            <mxPoint x="85" y="153" as="targetPoint"/>
          </mxGeometry>
        </mxCell>
        <mxCell id="hnc1bcMlpeBeaUBVkLQN-36" value="" style="shape=flexArrow;endArrow=classic;html=1;fillColor=#f8cecc;strokeColor=#b85450;" edge="1" parent="1">
          <mxGeometry width="50" height="50" relative="1" as="geometry">
            <mxPoint x="80" y="422.5" as="sourcePoint"/>
            <mxPoint y="422.5" as="targetPoint"/>
          </mxGeometry>
        </mxCell>
        <mxCell id="hnc1bcMlpeBeaUBVkLQN-37" value="&lt;font style=&quot;font-size: 14px&quot;&gt;&lt;b&gt;HTTP&lt;/b&gt;&lt;/font&gt;" style="text;html=1;strokeColor=none;fillColor=none;align=center;verticalAlign=middle;whiteSpace=wrap;rounded=0;" vertex="1" parent="1">
          <mxGeometry y="128" width="70" height="20" as="geometry"/>
        </mxCell>
        <mxCell id="hnc1bcMlpeBeaUBVkLQN-38" value="&lt;font style=&quot;font-size: 14px&quot;&gt;&lt;b&gt;Return&lt;/b&gt;&lt;/font&gt;" style="text;html=1;strokeColor=none;fillColor=none;align=center;verticalAlign=middle;whiteSpace=wrap;rounded=0;" vertex="1" parent="1">
          <mxGeometry x="7" y="389" width="70" height="20" as="geometry"/>
        </mxCell>
        <mxCell id="hnc1bcMlpeBeaUBVkLQN-39" value="&lt;h1&gt;&lt;font color=&quot;#009999&quot; style=&quot;font-size: 36px&quot;&gt;手势判断&lt;/font&gt;&lt;/h1&gt;" style="text;html=1;spacing=5;spacingTop=-20;whiteSpace=wrap;overflow=hidden;rounded=0;" vertex="1" parent="1">
          <mxGeometry x="630" y="-147" width="170" height="50" as="geometry"/>
        </mxCell>
      </root>
    </mxGraphModel>
  </diagram>
</mxfile>
